<svg xmlns="http://www.w3.org/2000/svg" width="400" height="400" viewBox="0 0 400 400">
  <path fill="#FFFFFE" fill-rule="evenodd" d="M199.992916,1 C309.902783,1 399,90.0816628 399,199.996852 C399,309.904169 309.902783,399 199.992916,399 C90.086198,399 1,309.904169 1,199.996852 C1,90.0816628 90.086198,1 199.992916,1 Z M199.992916,21.0574243 C101.174943,21.0574243 21.0507307,101.170627 21.0507307,199.996852 C21.0507307,298.829373 101.174943,378.942576 199.992916,378.942576 C298.831354,378.942576 378.928805,298.829373 378.928805,199.996852 C378.928805,101.170627 298.831354,21.0574243 199.992916,21.0574243 Z M257.733416,121.673562 L344.596828,260.671308 L311.802856,260.671308 L294.447175,232.895372 L243.700896,232.895372 L261.056577,205.0911 L277.074178,205.0911 L257.733416,174.133621 L203.660829,260.671308 L59.3953723,260.671308 L94.1271987,205.0911 L68.6155285,205.0911 L85.9775062,177.280532 L197.456861,177.280532 L180.094884,205.0911 L126.910151,205.0911 L109.541877,232.895372 L188.235131,232.895372 L257.733416,121.673562 Z M235.075792,121.673562 L217.699646,149.473111 L103.350503,149.473111 L120.720352,121.673562 L235.075792,121.673562 Z M286.846882,126.622981 L286.846882,128.022482 L284.074696,128.022482 L284.074696,135.048327 L282.391864,135.048327 L282.391864,128.022482 L279.644865,128.022482 L279.644865,126.622981 L286.846882,126.622981 Z M290.665919,126.622981 L292.802124,132.65233 L294.925735,126.622981 L297.365763,126.622981 L297.365763,135.048327 L295.807294,135.048327 L295.807294,128.242876 L293.4995,135.048327 L292.164568,135.048327 L289.811122,128.242876 L289.811122,135.048327 L288.273118,135.048327 L288.273118,126.622981 L290.665919,126.622981 Z"/>
</svg>
